<svg xmlns="http://www.w3.org/2000/svg" viewBox="0 0 100 100">
  <circle cx="50" cy="50" r="48" fill="#25D366"/>
  <path d="M50,15 C31,15 16,30 16,49 C16,57 18,65 22,71 L18,85 L33,79 C39,82 45,84 50,84 C69,84 84,69 84,50 C84,31 69,15 50,15 Z M50,80 C46,80 42,79 38,77 L35,78 L38,67 C35,62 33,57 33,50 C33,35 41,27 50,27 C65,27 75,37 75,50 C75,63 65,80 50,80 Z M60,55 C59,54 57,53 55,53 C54,53 53,53 52,54 C51,55 50,56 50,57 C50,59 51,60 53,62 C55,64 57,65 59,65 C61,65 63,64 64,62 C65,60 65,58 64,56 C63,55 62,55 60,55 Z" fill="white"/>
</svg>